<?xml version="1.0" encoding="UTF-8"?>
<svg id="Layer_1" xmlns="http://www.w3.org/2000/svg" version="1.1" viewBox="0 0 1080 440.7">
  <!-- Generator: Adobe Illustrator 30.0.0, SVG Export Plug-In . SVG Version: 2.1.1 Build 123)  -->
  <path d="M156.5,183c3.9-4.1,3.8-12.2,2.8-24.2-1.1-20.2-6.1-45-4.1-65.5,6-34,48.2,42.5,55.9,51.5,13.9,20.1,27.4,38.9,51.3,41.3,9.7,1.5,24.5-4.3,17.4-15.7-8.5-12.8-27.2-20.8-38.4-29.1-3.3-2.6-7.5-5.2-8.4-9.4-.2-3.9,4.9-5.4,6-8.8,1.4-5.2-6.5-12.1-10.8-17.2-6.4-6.8-14-14.4-20.7-21.3-12.9-13.8-26.9-25.6-34.8-38.5-10.3-19.9,24,.8,29.5,5.4,40.7,30.1,83.9,56.5,128.1,81.3,6.3,3.5,13.4,7.1,19.9,8.9,17.8,5.6,29.3-6.7,38.1-22.6,6.3-10.9,12.7-22.4,19.7-33.4,13.8-21.6,29.4-43.2,53-54.4,30.5-15.9,85.5-6.5,78.8,36.1-5.7,31.5-41.1,51.5-63.1,72-13.2,11.3,1.5,5.2,7.6,3.6,39.7-12.2,135.4-42.8,178.5-55.7,5.9-1.5,16.6-3.4,15.6,2.5-.7,2.1-3.4,5-8.4,8.2-5.7,3.8-14.6,7.6-25.1,12.3-25.8,11.5-64.1,28.6-88.9,39.7-12.4,5.8-28.5,11.6-18.2,12.3,28.1,0,72.7-2.8,103.2-10,46-9,102.5-25.6,144.3-21.1,30.4,3.4,32.2,34.1,56.5,46.6,31.2,14.3,68.4,14,103.2,13.5,20.8.3,41.9-3.3,62,.2,14.2,2.9,9.9,7.2-.8,9-12.4,2.5-36.7,2.2-54.6,2.9-5.5.2-11.7.3-16.6.9-4.6.7-6.9,1-9.2,3.3-2.3,2.8,1.4,7.4,7.1,14.3,5.6,6.7,12.6,15.5,16.3,24.7,7.6,17.8,4.4,39.8-10.3,52.9-17.6,16.2-43.8,15.9-66.1,11.7-29.9-5.5-59.5-14.9-89-22.8-15.8-4.7-34.8-6.7-50.3-.7-8.1,2.9-17.6,10-5.1,15,3.4,1.4,7.1,2.3,10.9,3.3,9.9,2.4,22.8,5.1,36.3,8.1,12,2.6,24.5,5.4,35.2,7.7,11,2.5,37.2,7.4,36.3,15.8-.5,1-2,1.9-4.4,2.3-4.8.9-12.4.3-18.4-.8-33.4-5.9-90-16.5-119-21.7-7.5-1.2-13.3-2.4-20.1-1.8-9.2,1-17.5,5.7-25.7,10-20.2,11.4-46.4,23.1-63.6,40-9.1,8.9-16.7,19-26.4,27.3-14.2,12.3-33.4,20.8-52.5,25.2-7.4,1.7-31.3,4.4-22.9-8.5,8.5-10.2,19.2-15.6,32.2-23.7,4.5-2.7,9.1-5.4,13.6-8.1,22.2-13.5,42.9-22.2,32.3-47.4-27.5-57.7-99.2-72.8-157.3-84.7-16-2.8-65.9-14.9-39.9,16,12.4,14.5,27,28,40.9,41,15.1,14.1,33.5,28.2,50.5,41.6,30.6,24.5,14.4,28-14.4,18.5-42.9-15-82.1-39.2-118.5-66.3-6.2-4.3-13.1-9.7-19.8-11-14.6-2.5-23.5,20.1-31.1,31.2-7,11.5-14.3,23.6-21.3,35.2-15.4,24.4-21.5,39.3-42.4,47.5-10.7,3.9-23.8,2.9-31.4-6.3-16.6-17.4-7.4-57.1-24.4-62.2-6.8-2-15.6-.1-22.3.2-3.4.2-5.6-.2-5.9-1.5,0-1.4.8-2.8,2-4,4.7-5.3,16.4-12.5,23.1-21.7,7.5-9.1,7.4-21.2,6.1-32.2-1-9-1.9-17.8-2.3-26.8-1.2-15,2.9-35-13.8-41.2-5.2-2-11.1-2.3-17.1-2.4-10.4,0-22.5.4-33.1.5-13.6-.2-23.7.8-34.5-4.3-6-4.5,6.2-7,9.4-7.6,7.5-1.5,19-1.6,31-1.6,12.9-.1,31.6.5,41-.9,3.6-.6,7.4-1.5,9.7-4h.1c0-.1,0-.1,0-.1ZM384.7,160.5c4.6,10.2,17.1,9.8,28.3,7.2,7.7-2,15-5.8,22.1-10.1,23.1-14.3,49.8-34.1,70.3-50.8,15.4-12.9,36.4-32.9,26.8-54.5-8.8-14.7-30.9-16.7-46.9-14.1-24.4,3.8-43.2,21.5-57.4,40.6-12.3,16.3-22.9,34.4-34,52-5.2,8.5-12.1,19.8-9.3,29.3v.2c0,0,0,0,0,0ZM362.9,167.4c.2,0,.3-.1.2-.2-.2-1-8-5.4-19.2-12.1-10-6-22.9-13.5-36.1-21.4-14.1-8.4-27.6-16.3-41.3-24.5-14.6-8.5-25.1-15.3-25.4-13.5.1,1.4,1.1,2.4,2.1,3.9,4.8,6.4,10.8,13.2,16.3,19.6,8,9.2,15.5,17.8,26.2,23.1,19,8.4,45.4,15.2,63.9,21.5,4.3,1.2,9.1,3.1,13.2,3.6h0ZM228.1,188.6c3.5-3.8-1-8.7-7.1-17.4-4.8-6.5-10.9-14.5-17-22.5-9.4-11.6-17.8-25.3-27.5-34.7-5-3.3-2.7,11.1-2.8,13.7.8,10.6,2,26.1,3.1,37.8,1.2,15.4,4.2,24.6,21.7,25.5,8.4.4,23.3,1.4,29.5-2.4h.1c0-.1,0-.1,0-.1ZM547.8,139.5c-6.3.4-14,3.3-20.5,5-11.2,3.3-26.6,8.4-42.1,13.5-12.6,4.2-26.1,8.6-38.6,12.7-7.2,2.6-18.4,5.5-22.5,8.2-.3.5,1.1.5,3.9.4,4.7-.4,11.1-1.2,16.5-1.9,19.1-2.3,34.5-5.4,53-14,11.7-5.1,24.1-10.8,35.7-16,4.1-1.9,7.7-3.5,10.2-4.8,3.9-1.9,5.2-2.9,4.6-3.2h0s0,0,0,0ZM802.3,167c8.4-6.8-.5-16.6-8-20.2-26.1-12.8-75.2.6-103.9,7.5-4.5,1.5-10.9,4-3.7,6.2,8.5,2.2,20.4,2.6,29.7,3.3,17.8,1.1,35.5,3.2,53.1,5.9,10.4,1.4,23.7,3.4,32.6-2.5l.2-.2h0ZM338.5,186.4c.3-4.3-30.2-17.5-33.6-13.2-2.1,4.1,7,11.5,16.2,14.1,4.3,1,14.7,2.9,17.4-.7h0c0-.1,0-.1,0-.1ZM547.9,183.6c-4.6,1.7,9.5,1.1,24.9,1.2h138.6c13.5,0,35,.3,45.7-3.3,8.5-3.7-15.4-5.3-18.5-5.6-42-2.8-84.5-4.3-126.7-2.8-20.4,1.4-44.6,5.5-63.9,10.4h-.1s0,0,0,0ZM797.6,193.9c-7.2-.3-19.4.9-27.7,1.2-21.5,1.3-43.5.7-65.2,2.5-17.2,1.4-34.7,3.2-51.8,4.7-6.9.9-18.1,1.2-23.3,2.8,20.4.6,49.2-1.7,71.1-2.2,33-1.4,65.5-2.5,96.9-9h0s0,0,0,0ZM242.8,201.5c-10.1-4.7-43.3-5.3-54.1.5-20.5,12.7-8.3,54.6,27.6,29.2,5.6-3.9,35.8-23.9,26.7-29.6h-.2ZM308.8,200.9c.2-.8-2.9-1.2-8.2-1.4-11.1,0-27.6-1.3-38.2,2.4-2.6,1.1-4.8,2.5-2.9,4.6,3.9,2.8,10.1,2.7,15.1,2.7,11.3-.2,25.7-4.5,31.5-6.7,1-.5,2.1-.8,2.6-1.5h0c0,0,0,0,0,0ZM758.8,267.7c3.4,6.3,16.2,7.1,29.7,11.1,5.7,1.4,11.3,2.9,16.9,4.5,30.1,7.6,60.2,18.3,91.3,18,9.2-.3,18.1-2.4,25.3-6.8,15.3-8.9,20.3-28.6,13.4-44.4-10.2-24.6-42-42-69.8-44.8-38.9-5-47.7,14.6-75.2,34.9-9.6,7.6-33,19.1-31.7,27.5v.2ZM811.3,211.1c.8-3.8-7.9-2.6-21.5-1.9-7.7.5-15.3.9-23.3,1.3-58.7,3.4-134.1,7.7-193.2,11.2-6,.4-12.8.6-4,2.8,33.2,8,115.7,27.9,154.8,36.9,6.2,1.2,11.3,1.6,17.4-.2,13.3-4,63.8-37.8,69.9-49.9h0c0,0,0-.1,0-.1ZM420.2,220.2c-16.1-3.1-52.7-.2-17.5,8,65.4,13,140.5,29.9,177.2,84.4,18.4,30.1,22.8,34.5,55.5,17,10.2-6,24.3-12,26.5-20-.3-6.8-12.6-9.4-19.3-12.1-48.7-16.4-95.8-31.2-143.9-50.5-25.4-9.8-51.1-22.6-78-26.8h-.4c0,0,0,0,0,0ZM567.8,257.2c-3-2.9-16.2-7.8-23.2-10.6-13.3-5.1-27.5-10.7-40.9-15.6-21.2-8.3-48.2-12.3-24.6-3,13.9,5.1,28.6,10.2,43,15.3,10.8,3.8,20.6,7.4,28.5,9.9,10.7,3.4,17.4,5,17.2,4.1h0s0,0,0,0ZM717.8,279.6c5.7-6.2-12-7.9-23.3-11.4-33.1-8.5-78-20-113.1-28.9-14.2-3.6-25.4-6.5-37.9-9.7-4.6-1-11.1-3.2-14.3-2.9-1.9.7,9.8,6.1,24.8,12.3,1.7.7,3.4,1.4,5.2,2.1,33.2,13.2,81.2,32.3,109.9,43.7,6.2,2.4,12.6,4.9,19,5.4,9.7,1,24.8-5.3,29.6-10.4h.1c0-.1,0-.1,0-.1ZM280.6,243.7c-2.8-12.8-44.2.5-55.6,2.5-26.4,6-43.3,7.1-38.8,39.7,2.2,13.4,12.5,7.7,21,3.3,9.1-4.8,19.1-10.2,28.7-15.3,9.9-5.3,19.7-10.5,27.7-14.8,7.9-3.8,17.7-11.6,17-15.2v-.2h0ZM443.8,342.1c.5-.9-1-3.1-4.1-6.3-4-4.1-9.5-8.9-14.1-13-16-14.1-31.9-28.4-46.9-43.4-9.8-9.4-18.3-21-29.4-28.8-19.9-14.3-42.1,1-24,21.9,28.2,26.2,62.9,45.4,97.4,62.6,4.8,2.3,10.8,5,15.2,6.4,3.3,1.1,5.4,1.3,5.9.5h0c0,0,0,0,0,0ZM301.9,264.4c-3.3-1.2-9.9,2.7-21.4,7.4-6.4,2.8-13.9,6.1-21.8,9.5-19.1,9-39.7,16-57.7,26.5-13.2,8-11.1,24.7-10.2,38.3,1.7,13.3,1.8,35,13.2,42.7,19.4,8.2,35-16.2,43.6-30.7,13.7-23.6,41.7-67,54.4-91.4.3-.9.5-1.7,0-2.3h0ZM571.6,372c-.1-.8-3,.2-8.2,3-3.8,2-8.7,4.9-13.8,8-6.7,4.1-14.2,8.6-19.9,12.7-1.8,1.3-3,2.3-3.6,2.9-.5.6-.6.9-.2,1,7.8-.5,38.3-16.7,45.8-27.6h0c0,0,0,0,0,0Z"/>
</svg>